<?xml version="1.0" encoding="UTF-8"?>
<svg xmlns="http://www.w3.org/2000/svg" xmlns:xlink="http://www.w3.org/1999/xlink" width="30pt" height="30.000001pt" viewBox="0 0 30 30.000001" version="1.2">
<defs>
<clipPath id="clip1">
  <path d="M 0.484375 0 L 29.515625 0 L 29.515625 29.03125 L 0.484375 29.03125 Z M 0.484375 0 "/>
</clipPath>
</defs>
<g id="surface1">
<g clip-path="url(#clip1)" clip-rule="nonzero">
<path style=" stroke:none;fill-rule:nonzero;fill:rgb(254.729858%,254.159729%,254.548828%);fill-opacity:1;" d="M 15 0 C 6.996094 0 0.484375 6.511719 0.484375 14.515625 C 0.484375 22.519531 6.996094 29.03125 15 29.03125 C 23.003906 29.03125 29.515625 22.519531 29.515625 14.515625 C 29.515625 6.511719 23.003906 0 15 0 Z M 21.507812 15.566406 L 16.207031 15.566406 L 16.207031 20.714844 C 16.207031 21.296875 15.734375 21.769531 15.152344 21.769531 C 14.570312 21.769531 14.101562 21.296875 14.101562 20.714844 L 14.101562 15.566406 L 8.800781 15.566406 C 8.21875 15.566406 7.75 15.097656 7.75 14.515625 C 7.75 13.933594 8.21875 13.464844 8.800781 13.464844 L 14.101562 13.464844 L 14.101562 8.011719 C 14.101562 7.429688 14.570312 6.957031 15.152344 6.957031 C 15.734375 6.957031 16.207031 7.429688 16.207031 8.011719 L 16.207031 13.464844 L 21.503906 13.464844 C 22.085938 13.464844 22.558594 13.933594 22.558594 14.515625 C 22.558594 15.097656 22.085938 15.566406 21.507812 15.566406 Z M 21.507812 15.566406 "/>
</g>
</g>
</svg>
