<?xml version="1.0" encoding="UTF-8"?>
<svg xmlns="http://www.w3.org/2000/svg" xmlns:xlink="http://www.w3.org/1999/xlink" width="30pt" height="30.000001pt" viewBox="0 0 30 30.000001" version="1.2">
<defs>
<clipPath id="clip1">
  <path d="M 0.484375 0 L 29.515625 0 L 29.515625 29.03125 L 0.484375 29.03125 Z M 0.484375 0 "/>
</clipPath>
</defs>
<g id="surface1">
<path style=" stroke:none;fill-rule:nonzero;fill:rgb(80%,80%,80%);fill-opacity:1;" d="M 10.554688 22.089844 L 19.445312 22.089844 L 20.019531 9.46875 L 9.980469 9.46875 Z M 10.554688 22.089844 "/>
<g clip-path="url(#clip1)" clip-rule="nonzero">
<path style=" stroke:none;fill-rule:nonzero;fill:rgb(80%,80%,80%);fill-opacity:1;" d="M 15 0 C 14.046875 0 13.101562 0.09375 12.167969 0.277344 C 11.234375 0.464844 10.324219 0.738281 9.445312 1.105469 C 8.5625 1.46875 7.726562 1.917969 6.933594 2.445312 C 6.144531 2.976562 5.410156 3.578125 4.734375 4.25 C 4.0625 4.925781 3.460938 5.660156 2.929688 6.453125 C 2.402344 7.242188 1.953125 8.082031 1.589844 8.960938 C 1.222656 9.839844 0.949219 10.75 0.761719 11.683594 C 0.578125 12.617188 0.484375 13.5625 0.484375 14.515625 C 0.484375 15.46875 0.578125 16.414062 0.761719 17.347656 C 0.949219 18.28125 1.222656 19.191406 1.589844 20.070312 C 1.953125 20.953125 2.402344 21.789062 2.929688 22.582031 C 3.460938 23.375 4.0625 24.105469 4.734375 24.78125 C 5.410156 25.453125 6.144531 26.054688 6.933594 26.585938 C 7.726562 27.117188 8.5625 27.5625 9.445312 27.925781 C 10.324219 28.292969 11.234375 28.566406 12.167969 28.753906 C 13.101562 28.9375 14.046875 29.03125 15 29.03125 C 15.953125 29.03125 16.898438 28.9375 17.832031 28.753906 C 18.765625 28.566406 19.675781 28.292969 20.554688 27.925781 C 21.4375 27.5625 22.273438 27.117188 23.066406 26.585938 C 23.855469 26.054688 24.589844 25.453125 25.265625 24.78125 C 25.9375 24.105469 26.539062 23.375 27.070312 22.582031 C 27.597656 21.789062 28.046875 20.953125 28.410156 20.070312 C 28.777344 19.191406 29.050781 18.28125 29.238281 17.347656 C 29.421875 16.414062 29.515625 15.46875 29.515625 14.515625 C 29.515625 13.5625 29.421875 12.621094 29.234375 11.683594 C 29.046875 10.75 28.773438 9.84375 28.40625 8.964844 C 28.042969 8.082031 27.59375 7.246094 27.066406 6.457031 C 26.535156 5.664062 25.933594 4.929688 25.261719 4.257812 C 24.585938 3.582031 23.851562 2.980469 23.0625 2.453125 C 22.269531 1.921875 21.433594 1.472656 20.550781 1.109375 C 19.671875 0.742188 18.765625 0.46875 17.832031 0.28125 C 16.894531 0.09375 15.953125 0 15 0 Z M 12.476562 5.679688 L 17.523438 5.679688 C 17.699219 5.679688 17.847656 5.742188 17.972656 5.863281 C 18.09375 5.988281 18.15625 6.136719 18.15625 6.3125 C 18.15625 6.484375 18.09375 6.632812 17.972656 6.757812 C 17.847656 6.882812 17.699219 6.941406 17.523438 6.941406 L 12.476562 6.941406 C 12.300781 6.941406 12.152344 6.882812 12.027344 6.757812 C 11.90625 6.632812 11.84375 6.484375 11.84375 6.3125 C 11.84375 6.136719 11.90625 5.988281 12.027344 5.863281 C 12.152344 5.742188 12.300781 5.679688 12.476562 5.679688 Z M 21.941406 9.46875 L 21.285156 9.46875 L 20.679688 22.75 C 20.671875 22.917969 20.609375 23.0625 20.484375 23.175781 C 20.363281 23.292969 20.21875 23.351562 20.050781 23.351562 L 9.949219 23.351562 C 9.78125 23.351562 9.636719 23.292969 9.515625 23.175781 C 9.390625 23.0625 9.328125 22.917969 9.320312 22.75 L 8.714844 9.46875 L 8.058594 9.46875 C 7.882812 9.46875 7.734375 9.40625 7.609375 9.28125 C 7.488281 9.160156 7.425781 9.011719 7.425781 8.835938 C 7.425781 8.660156 7.488281 8.511719 7.609375 8.390625 C 7.734375 8.265625 7.882812 8.203125 8.058594 8.203125 L 21.941406 8.203125 C 22.117188 8.203125 22.265625 8.265625 22.390625 8.390625 C 22.511719 8.511719 22.574219 8.660156 22.574219 8.835938 C 22.574219 9.011719 22.511719 9.160156 22.390625 9.28125 C 22.265625 9.40625 22.117188 9.46875 21.941406 9.46875 Z M 21.941406 9.46875 "/>
</g>
</g>
</svg>
