<?xml version="1.0" encoding="UTF-8"?>
<svg xmlns="http://www.w3.org/2000/svg" xmlns:xlink="http://www.w3.org/1999/xlink" width="375pt" height="374.999991pt" viewBox="0 0 375 374.999991" version="1.2">
<defs>
<clipPath id="clip1">
  <path d="M 10.753906 11.484375 L 363.253906 11.484375 L 363.253906 363.984375 L 10.753906 363.984375 Z M 10.753906 11.484375 "/>
</clipPath>
</defs>
<g id="surface1">
<g clip-path="url(#clip1)" clip-rule="nonzero">
  <path style=" stroke:none;fill-rule:nonzero;fill:rgb(13, 23, 53);fill-opacity:1;" d="M 304.769531 11.484375 L 69.238281 11.484375 C 67.324219 11.484375 65.414062 11.582031 63.511719 11.769531 C 61.605469 11.960938 59.714844 12.242188 57.835938 12.617188 C 55.957031 12.996094 54.101562 13.460938 52.273438 14.019531 C 50.441406 14.574219 48.640625 15.222656 46.871094 15.953125 C 45.101562 16.6875 43.375 17.507812 41.6875 18.410156 C 39.996094 19.3125 38.359375 20.296875 36.765625 21.363281 C 35.175781 22.425781 33.636719 23.566406 32.160156 24.78125 C 30.679688 25.996094 29.261719 27.28125 27.90625 28.632812 C 26.554688 29.988281 25.269531 31.40625 24.054688 32.886719 C 22.839844 34.367188 21.699219 35.902344 20.636719 37.492188 C 19.570312 39.085938 18.585938 40.722656 17.683594 42.414062 C 16.78125 44.101562 15.960938 45.828125 15.226562 47.597656 C 14.496094 49.367188 13.847656 51.167969 13.292969 53 C 12.734375 54.832031 12.269531 56.683594 11.890625 58.5625 C 11.515625 60.441406 11.234375 62.332031 11.042969 64.238281 C 10.855469 66.140625 10.757812 68.050781 10.753906 69.96875 L 10.753906 305.511719 C 10.757812 307.429688 10.855469 309.335938 11.046875 311.242188 C 11.234375 313.148438 11.519531 315.039062 11.894531 316.914062 C 12.269531 318.792969 12.738281 320.648438 13.292969 322.480469 C 13.851562 324.308594 14.5 326.109375 15.234375 327.878906 C 15.964844 329.644531 16.785156 331.375 17.6875 333.0625 C 18.59375 334.75 19.578125 336.390625 20.640625 337.980469 C 21.707031 339.570312 22.84375 341.105469 24.058594 342.585938 C 25.273438 344.066406 26.558594 345.480469 27.914062 346.835938 C 29.265625 348.1875 30.683594 349.472656 32.164062 350.6875 C 33.644531 351.902344 35.179688 353.042969 36.769531 354.105469 C 38.363281 355.167969 40.003906 356.152344 41.691406 357.054688 C 43.378906 357.960938 45.105469 358.777344 46.875 359.511719 C 48.644531 360.246094 50.441406 360.890625 52.273438 361.449219 C 54.105469 362.003906 55.960938 362.472656 57.835938 362.847656 C 59.714844 363.222656 61.605469 363.503906 63.511719 363.695312 C 65.417969 363.882812 67.324219 363.980469 69.238281 363.984375 L 304.769531 363.984375 C 306.6875 363.980469 308.59375 363.882812 310.5 363.695312 C 312.40625 363.503906 314.296875 363.222656 316.175781 362.847656 C 318.050781 362.472656 319.90625 362.003906 321.738281 361.449219 C 323.570312 360.890625 325.367188 360.246094 327.136719 359.511719 C 328.90625 358.777344 330.632812 357.960938 332.320312 357.054688 C 334.007812 356.152344 335.648438 355.167969 337.242188 354.105469 C 338.832031 353.042969 340.367188 351.902344 341.847656 350.6875 C 343.328125 349.472656 344.746094 348.191406 346.097656 346.835938 C 347.453125 345.480469 348.738281 344.066406 349.953125 342.585938 C 351.167969 341.105469 352.304688 339.570312 353.371094 337.980469 C 354.433594 336.390625 355.417969 334.75 356.324219 333.0625 C 357.226562 331.375 358.046875 329.644531 358.777344 327.878906 C 359.511719 326.109375 360.160156 324.308594 360.714844 322.480469 C 361.273438 320.648438 361.742188 318.792969 362.117188 316.914062 C 362.492188 315.039062 362.777344 313.148438 362.964844 311.242188 C 363.15625 309.335938 363.253906 307.429688 363.253906 305.511719 L 363.253906 69.96875 C 363.253906 68.050781 363.15625 66.140625 362.96875 64.238281 C 362.777344 62.332031 362.496094 60.441406 362.121094 58.5625 C 361.742188 56.683594 361.277344 54.832031 360.71875 53 C 360.164062 51.167969 359.515625 49.367188 358.785156 47.597656 C 358.050781 45.828125 357.230469 44.101562 356.328125 42.414062 C 355.425781 40.722656 354.441406 39.085938 353.375 37.492188 C 352.3125 35.902344 351.171875 34.367188 349.957031 32.886719 C 348.742188 31.40625 347.457031 29.988281 346.105469 28.632812 C 344.75 27.28125 343.332031 25.996094 341.851562 24.78125 C 340.371094 23.566406 338.835938 22.425781 337.246094 21.363281 C 335.652344 20.296875 334.015625 19.3125 332.324219 18.410156 C 330.636719 17.507812 328.910156 16.6875 327.140625 15.953125 C 325.371094 15.222656 323.570312 14.574219 321.738281 14.019531 C 319.90625 13.460938 318.054688 12.996094 316.175781 12.617188 C 314.296875 12.242188 312.40625 11.960938 310.5 11.769531 C 308.597656 11.582031 306.6875 11.484375 304.769531 11.484375 Z M 230.101562 320.503906 C 228.9375 320.84375 227.746094 321.046875 226.535156 321.117188 C 225.320312 321.183594 224.117188 321.109375 222.921875 320.898438 C 221.722656 320.6875 220.566406 320.34375 219.453125 319.863281 C 218.335938 319.386719 217.289062 318.785156 216.308594 318.066406 C 215.539062 317.394531 214.855469 316.652344 214.25 315.832031 C 213.644531 315.011719 213.132812 314.132812 212.722656 313.203125 C 212.308594 312.269531 212 311.304688 211.800781 310.304688 C 211.597656 309.304688 211.507812 308.296875 211.527344 307.277344 L 211.527344 300.042969 C 211.527344 293.40625 211.636719 283.367188 211.636719 271.84375 C 211.804688 270.1875 211.796875 268.53125 211.613281 266.878906 C 211.425781 265.226562 211.070312 263.609375 210.542969 262.03125 C 210.015625 260.453125 209.324219 258.949219 208.476562 257.519531 C 207.625 256.085938 206.636719 254.761719 205.503906 253.542969 C 204.960938 253.070312 204.492188 252.53125 204.105469 251.921875 C 203.714844 251.316406 203.421875 250.664062 203.226562 249.96875 C 203.027344 249.277344 202.933594 248.570312 202.941406 247.847656 C 202.949219 247.128906 203.058594 246.421875 203.273438 245.734375 C 203.488281 245.046875 203.796875 244.402344 204.199219 243.800781 C 204.597656 243.203125 205.078125 242.675781 205.632812 242.214844 C 206.191406 241.753906 206.800781 241.386719 207.464844 241.105469 C 208.128906 240.824219 208.820312 240.640625 209.535156 240.5625 C 236.617188 237.496094 261.644531 228.636719 261.644531 184.207031 C 261.695312 181.492188 261.484375 178.792969 261.019531 176.117188 C 260.554688 173.441406 259.839844 170.832031 258.875 168.292969 C 257.910156 165.753906 256.710938 163.328125 255.285156 161.015625 C 253.855469 158.703125 252.21875 156.550781 250.378906 154.550781 C 249.910156 154.035156 249.519531 153.464844 249.210938 152.84375 C 248.902344 152.21875 248.683594 151.5625 248.558594 150.878906 C 248.433594 150.191406 248.402344 149.503906 248.46875 148.808594 C 248.539062 148.117188 248.699219 147.445312 248.953125 146.796875 C 250.324219 142.898438 251.03125 138.882812 251.078125 134.75 C 251.125 130.617188 250.507812 126.585938 249.230469 122.65625 C 244.539062 123.71875 240.011719 125.269531 235.65625 127.308594 C 231.300781 129.34375 227.210938 131.828125 223.390625 134.75 C 222.492188 135.355469 221.503906 135.75 220.433594 135.925781 C 219.363281 136.101562 218.304688 136.046875 217.257812 135.761719 C 207.355469 133.070312 197.269531 131.691406 187.003906 131.625 C 176.777344 131.664062 166.726562 133.035156 156.859375 135.730469 C 155.8125 136.023438 154.753906 136.082031 153.683594 135.90625 C 152.609375 135.730469 151.625 135.332031 150.730469 134.71875 C 146.910156 131.785156 142.816406 129.304688 138.449219 127.273438 C 134.082031 125.242188 129.546875 123.707031 124.84375 122.671875 C 123.570312 126.589844 122.960938 130.609375 123.015625 134.730469 C 123.066406 138.847656 123.777344 142.851562 125.148438 146.734375 C 125.410156 147.382812 125.578125 148.058594 125.648438 148.753906 C 125.722656 149.449219 125.695312 150.144531 125.570312 150.832031 C 125.445312 151.519531 125.226562 152.179688 124.914062 152.804688 C 124.605469 153.433594 124.210938 154.003906 123.738281 154.519531 C 121.898438 156.519531 120.261719 158.671875 118.828125 160.984375 C 117.398438 163.292969 116.203125 165.71875 115.234375 168.257812 C 114.269531 170.800781 113.550781 173.40625 113.085938 176.085938 C 112.617188 178.761719 112.410156 181.460938 112.460938 184.175781 C 112.460938 228.621094 138.757812 237.664062 164.476562 240.652344 C 164.960938 240.707031 165.4375 240.8125 165.902344 240.960938 C 166.367188 241.109375 166.8125 241.300781 167.238281 241.539062 C 167.664062 241.773438 168.0625 242.050781 168.4375 242.367188 C 168.808594 242.683594 169.144531 243.03125 169.449219 243.414062 C 169.753906 243.796875 170.015625 244.203125 170.238281 244.636719 C 170.460938 245.074219 170.636719 245.523438 170.773438 245.992188 C 170.90625 246.460938 170.992188 246.941406 171.03125 247.425781 C 171.070312 247.914062 171.0625 248.398438 171.003906 248.882812 C 170.933594 249.363281 170.820312 249.828125 170.664062 250.285156 C 170.503906 250.742188 170.304688 251.183594 170.0625 251.601562 C 169.820312 252.019531 169.542969 252.414062 169.226562 252.78125 C 168.910156 253.144531 168.5625 253.480469 168.183594 253.78125 C 167.804688 254.082031 167.402344 254.34375 166.972656 254.566406 C 166.546875 254.792969 166.097656 254.972656 165.636719 255.113281 C 165.171875 255.253906 164.699219 255.347656 164.21875 255.398438 C 163.738281 255.449219 163.257812 255.453125 162.773438 255.414062 C 134.804688 252.164062 97.625 241.265625 97.625 184.175781 C 97.585938 180.914062 97.824219 177.671875 98.332031 174.449219 C 98.84375 171.226562 99.621094 168.070312 100.664062 164.980469 C 101.707031 161.886719 103.003906 158.90625 104.550781 156.035156 C 106.097656 153.164062 107.878906 150.441406 109.886719 147.871094 C 109.160156 144.957031 108.671875 142.003906 108.421875 139.015625 C 108.167969 136.023438 108.152344 133.035156 108.378906 130.039062 C 108.601562 127.046875 109.0625 124.09375 109.753906 121.171875 C 110.449219 118.253906 111.371094 115.40625 112.519531 112.632812 C 112.925781 111.601562 113.53125 110.707031 114.335938 109.945312 C 115.140625 109.183594 116.066406 108.628906 117.117188 108.28125 C 119.433594 107.515625 131.753906 104.820312 156.109375 120.542969 C 166.246094 118.039062 176.539062 116.785156 186.984375 116.785156 C 197.425781 116.785156 207.71875 118.039062 217.855469 120.542969 C 242.179688 104.804688 254.515625 107.5 256.800781 108.28125 C 257.851562 108.628906 258.777344 109.179688 259.582031 109.941406 C 260.386719 110.699219 260.992188 111.589844 261.398438 112.621094 C 262.570312 115.386719 263.511719 118.230469 264.222656 121.148438 C 264.933594 124.070312 265.40625 127.027344 265.636719 130.023438 C 265.867188 133.019531 265.859375 136.011719 265.605469 139.007812 C 265.351562 142 264.859375 144.953125 264.125 147.871094 C 266.132812 150.441406 267.910156 153.160156 269.457031 156.03125 C 271.003906 158.902344 272.300781 161.882812 273.34375 164.972656 C 274.386719 168.0625 275.164062 171.21875 275.675781 174.4375 C 276.1875 177.660156 276.425781 180.902344 276.386719 184.160156 C 276.386719 233.574219 248.601562 248.347656 222.960938 253.449219 C 225.332031 259.351562 226.476562 265.480469 226.394531 271.84375 C 226.394531 283.398438 226.316406 293.453125 226.269531 300.148438 L 226.269531 305.910156 C 228.503906 305.136719 230.714844 304.296875 232.898438 303.390625 C 235.082031 302.488281 237.238281 301.519531 239.363281 300.488281 C 241.492188 299.457031 243.585938 298.363281 245.648438 297.210938 C 247.714844 296.054688 249.742188 294.839844 251.734375 293.570312 C 253.726562 292.296875 255.675781 290.964844 257.589844 289.578125 C 259.503906 288.191406 261.378906 286.746094 263.207031 285.25 C 265.035156 283.753906 266.820312 282.203125 268.558594 280.601562 C 270.296875 279 271.988281 277.347656 273.628906 275.644531 C 275.269531 273.945312 276.859375 272.195312 278.398438 270.402344 C 279.9375 268.609375 281.421875 266.769531 282.855469 264.886719 C 284.285156 263.007812 285.660156 261.085938 286.980469 259.121094 C 288.296875 257.160156 289.558594 255.160156 290.757812 253.125 C 291.960938 251.089844 293.101562 249.019531 294.179688 246.914062 C 295.257812 244.8125 296.277344 242.679688 297.230469 240.515625 C 298.1875 238.355469 299.078125 236.164062 299.902344 233.949219 C 300.730469 231.734375 301.488281 229.5 302.183594 227.238281 C 302.878906 224.980469 303.507812 222.699219 304.070312 220.40625 C 304.632812 218.109375 305.125 215.796875 305.550781 213.472656 C 305.976562 211.144531 306.335938 208.8125 306.621094 206.464844 C 306.910156 204.117188 307.132812 201.765625 307.28125 199.40625 C 307.433594 197.046875 307.515625 194.683594 307.527344 192.320312 C 307.539062 189.957031 307.484375 187.59375 307.355469 185.234375 C 307.230469 182.875 307.035156 180.519531 306.769531 178.167969 C 306.507812 175.820312 306.171875 173.480469 305.769531 171.152344 C 305.371094 168.820312 304.898438 166.503906 304.363281 164.203125 C 303.824219 161.902344 303.222656 159.617188 302.550781 157.347656 C 301.878906 155.082031 301.140625 152.835938 300.335938 150.613281 C 299.535156 148.390625 298.667969 146.191406 297.734375 144.019531 C 296.800781 141.847656 295.808594 139.703125 294.75 137.589844 C 293.691406 135.476562 292.574219 133.394531 291.394531 131.347656 C 290.214844 129.296875 288.972656 127.285156 287.675781 125.308594 C 286.378906 123.332031 285.023438 121.398438 283.613281 119.5 C 282.199219 117.605469 280.734375 115.75 279.214844 113.941406 C 277.695312 112.128906 276.121094 110.367188 274.5 108.648438 C 272.875 106.929688 271.203125 105.261719 269.480469 103.640625 C 267.757812 102.019531 265.992188 100.453125 264.179688 98.933594 C 262.363281 97.417969 260.507812 95.957031 258.609375 94.550781 C 256.707031 93.140625 254.769531 91.789062 252.792969 90.496094 C 250.8125 89.203125 248.796875 87.96875 246.746094 86.792969 C 244.695312 85.617188 242.613281 84.503906 240.496094 83.449219 C 238.378906 82.394531 236.234375 81.40625 234.058594 80.476562 C 231.886719 79.550781 229.683594 78.6875 227.460938 77.890625 C 225.234375 77.089844 222.988281 76.359375 220.71875 75.691406 C 218.453125 75.023438 216.167969 74.425781 213.863281 73.890625 C 211.558594 73.359375 209.242188 72.894531 206.914062 72.496094 C 204.582031 72.101562 202.242188 71.773438 199.890625 71.511719 C 197.542969 71.253906 195.1875 71.0625 192.824219 70.941406 C 190.464844 70.820312 188.101562 70.769531 185.738281 70.785156 C 183.375 70.804688 181.011719 70.890625 178.652344 71.046875 C 176.292969 71.203125 173.941406 71.425781 171.597656 71.71875 C 169.25 72.015625 166.914062 72.375 164.589844 72.808594 C 162.265625 73.238281 159.957031 73.738281 157.660156 74.300781 C 155.367188 74.867188 153.089844 75.5 150.832031 76.203125 C 148.574219 76.902344 146.339844 77.667969 144.125 78.496094 C 141.910156 79.328125 139.722656 80.222656 137.5625 81.183594 C 135.402344 82.140625 133.273438 83.164062 131.171875 84.246094 C 129.070312 85.332031 127.003906 86.476562 124.96875 87.683594 C 122.9375 88.886719 120.941406 90.152344 118.980469 91.472656 C 117.019531 92.796875 115.101562 94.175781 113.222656 95.609375 C 111.34375 97.046875 109.507812 98.535156 107.71875 100.078125 C 105.925781 101.621094 104.183594 103.214844 102.484375 104.859375 C 100.785156 106.503906 99.140625 108.199219 97.539062 109.941406 C 95.941406 111.683594 94.394531 113.46875 92.902344 115.300781 C 91.410156 117.132812 89.96875 119.007812 88.585938 120.925781 C 87.203125 122.84375 85.875 124.796875 84.605469 126.792969 C 83.339844 128.789062 82.128906 130.816406 80.980469 132.882812 C 79.828125 134.949219 78.742188 137.046875 77.714844 139.175781 C 76.6875 141.304688 75.722656 143.460938 74.824219 145.648438 C 73.921875 147.835938 73.089844 150.046875 72.316406 152.28125 C 71.546875 154.515625 70.84375 156.769531 70.203125 159.046875 C 69.566406 161.324219 68.996094 163.617188 68.492188 165.925781 C 67.988281 168.234375 67.550781 170.558594 67.183594 172.894531 C 66.816406 175.230469 66.519531 177.574219 66.289062 179.925781 C 66.058594 182.277344 65.898438 184.636719 65.804688 187 C 65.714844 189.359375 65.691406 191.722656 65.738281 194.085938 C 65.785156 196.449219 65.902344 198.8125 66.085938 201.167969 C 66.269531 203.523438 66.527344 205.875 66.847656 208.214844 C 67.171875 210.558594 67.5625 212.886719 68.023438 215.207031 C 68.484375 217.527344 69.011719 219.828125 69.605469 222.117188 C 70.199219 224.40625 70.863281 226.675781 71.589844 228.921875 C 72.316406 231.171875 73.109375 233.398438 73.96875 235.601562 C 74.828125 237.804688 75.75 239.980469 76.738281 242.128906 C 77.722656 244.277344 78.769531 246.394531 79.882812 248.480469 C 80.992188 250.566406 82.164062 252.621094 83.394531 254.640625 C 84.625 256.65625 85.914062 258.636719 87.261719 260.582031 C 88.605469 262.523438 90.007812 264.425781 91.46875 266.285156 C 92.925781 268.148438 94.4375 269.960938 96.003906 271.734375 C 97.570312 273.507812 99.183594 275.230469 100.851562 276.90625 C 102.515625 278.585938 104.230469 280.210938 105.992188 281.789062 C 107.753906 283.363281 109.558594 284.886719 111.410156 286.359375 C 113.261719 287.828125 115.15625 289.246094 117.089844 290.605469 C 119.023438 291.964844 120.996094 293.265625 123.003906 294.507812 C 125.015625 295.753906 127.0625 296.9375 129.140625 298.0625 C 131.21875 299.183594 133.332031 300.246094 135.472656 301.246094 C 137.617188 302.246094 139.785156 303.183594 141.980469 304.054688 C 144.179688 304.929688 146.398438 305.738281 148.644531 306.480469 C 147.648438 297.367188 147.265625 288.226562 147.496094 279.0625 C 145.625 279.230469 143.800781 279.367188 142.054688 279.367188 C 140.058594 279.511719 138.066406 279.5 136.074219 279.324219 C 134.082031 279.148438 132.117188 278.816406 130.179688 278.324219 C 128.242188 277.835938 126.355469 277.191406 124.519531 276.398438 C 122.6875 275.601562 120.925781 274.664062 119.242188 273.585938 C 117.558594 272.507812 115.972656 271.304688 114.480469 269.96875 C 112.992188 268.636719 111.617188 267.191406 110.359375 265.636719 C 109.101562 264.082031 107.976562 262.4375 106.984375 260.703125 C 105.992188 258.964844 105.144531 257.164062 104.445312 255.289062 C 104.292969 254.820312 104.1875 254.339844 104.132812 253.851562 C 104.078125 253.359375 104.070312 252.867188 104.113281 252.375 C 104.15625 251.882812 104.246094 251.402344 104.382812 250.929688 C 104.523438 250.453125 104.707031 250 104.9375 249.5625 C 105.164062 249.125 105.4375 248.714844 105.746094 248.332031 C 106.058594 247.949219 106.40625 247.601562 106.785156 247.285156 C 107.167969 246.972656 107.574219 246.699219 108.011719 246.46875 C 108.445312 246.234375 108.898438 246.046875 109.371094 245.90625 C 109.84375 245.765625 110.328125 245.671875 110.820312 245.625 C 111.308594 245.578125 111.800781 245.582031 112.292969 245.636719 C 112.78125 245.6875 113.265625 245.789062 113.734375 245.9375 C 114.207031 246.085938 114.65625 246.277344 115.089844 246.515625 C 115.519531 246.753906 115.925781 247.035156 116.300781 247.355469 C 116.679688 247.671875 117.019531 248.027344 117.324219 248.414062 C 117.632812 248.800781 117.894531 249.214844 118.117188 249.65625 C 118.34375 250.09375 118.519531 250.554688 118.652344 251.027344 C 119.234375 252.824219 125.5625 269.207031 153.304688 263.289062 C 153.78125 263.1875 154.261719 263.128906 154.75 263.121094 C 155.238281 263.109375 155.71875 263.148438 156.199219 263.234375 C 156.679688 263.320312 157.144531 263.453125 157.597656 263.632812 C 158.054688 263.8125 158.484375 264.035156 158.894531 264.296875 C 159.304688 264.5625 159.683594 264.863281 160.035156 265.203125 C 160.382812 265.542969 160.695312 265.914062 160.972656 266.316406 C 161.25 266.714844 161.484375 267.140625 161.675781 267.589844 C 161.867188 268.035156 162.015625 268.5 162.117188 268.976562 C 162.351562 270.167969 162.292969 271.339844 161.933594 272.5 C 162.117188 273.027344 162.238281 273.570312 162.300781 274.125 C 162.375 284.945312 162.484375 304.242188 162.484375 307.335938 C 162.503906 308.355469 162.410156 309.359375 162.203125 310.355469 C 162 311.351562 161.6875 312.316406 161.269531 313.242188 C 160.855469 314.167969 160.339844 315.039062 159.730469 315.855469 C 159.121094 316.667969 158.429688 317.40625 157.65625 318.066406 C 156.359375 319.125 154.921875 319.921875 153.339844 320.464844 C 151.757812 321.007812 150.132812 321.261719 148.460938 321.222656 C 147.28125 321.226562 146.113281 321.125 144.949219 320.917969 C 142.417969 320.089844 139.90625 319.191406 137.425781 318.21875 C 134.945312 317.246094 132.492188 316.199219 130.074219 315.082031 C 127.652344 313.964844 125.265625 312.777344 122.914062 311.519531 C 120.566406 310.261719 118.253906 308.9375 115.980469 307.542969 C 113.707031 306.152344 111.480469 304.691406 109.292969 303.167969 C 107.105469 301.640625 104.964844 300.054688 102.871094 298.402344 C 100.777344 296.753906 98.734375 295.042969 96.742188 293.269531 C 94.75 291.5 92.8125 289.671875 90.925781 287.785156 C 89.042969 285.902344 87.214844 283.964844 85.441406 281.96875 C 83.671875 279.976562 81.960938 277.933594 80.308594 275.84375 C 78.660156 273.75 77.070312 271.609375 75.546875 269.421875 C 74.019531 267.234375 72.5625 265.007812 71.167969 262.734375 C 69.773438 260.460938 68.449219 258.148438 67.191406 255.800781 C 65.933594 253.449219 64.746094 251.0625 63.628906 248.644531 C 62.511719 246.222656 61.464844 243.769531 60.492188 241.289062 C 59.519531 238.808594 58.621094 236.300781 57.792969 233.765625 C 56.96875 231.230469 56.21875 228.671875 55.542969 226.09375 C 54.867188 223.515625 54.269531 220.917969 53.746094 218.304688 C 53.226562 215.691406 52.78125 213.0625 52.410156 210.421875 C 52.042969 207.78125 51.753906 205.132812 51.542969 202.476562 C 51.332031 199.820312 51.195312 197.15625 51.140625 194.492188 C 51.085938 191.828125 51.109375 189.160156 51.210938 186.496094 C 51.3125 183.835938 51.492188 181.175781 51.75 178.523438 C 52.007812 175.867188 52.34375 173.226562 52.757812 170.589844 C 53.167969 167.957031 53.660156 165.339844 54.226562 162.734375 C 54.792969 160.128906 55.4375 157.542969 56.15625 154.976562 C 56.878906 152.410156 57.671875 149.867188 58.542969 147.347656 C 59.410156 144.824219 60.351562 142.332031 61.371094 139.867188 C 62.386719 137.40625 63.472656 134.972656 64.632812 132.570312 C 65.789062 130.171875 67.019531 127.804688 68.316406 125.476562 C 69.617188 123.148438 70.980469 120.859375 72.414062 118.613281 C 73.847656 116.363281 75.34375 114.160156 76.90625 112 C 78.46875 109.839844 80.09375 107.730469 81.78125 105.664062 C 83.46875 103.601562 85.214844 101.585938 87.019531 99.625 C 88.824219 97.664062 90.683594 95.757812 92.601562 93.90625 C 94.519531 92.050781 96.488281 90.257812 98.511719 88.523438 C 100.535156 86.785156 102.609375 85.109375 104.730469 83.496094 C 106.851562 81.882812 109.019531 80.332031 111.230469 78.84375 C 113.445312 77.359375 115.699219 75.9375 117.996094 74.582031 C 120.292969 73.230469 122.625 71.945312 124.996094 70.726562 C 127.371094 69.511719 129.773438 68.363281 132.214844 67.289062 C 134.652344 66.214844 137.121094 65.210938 139.621094 64.28125 C 142.121094 63.351562 144.644531 62.496094 147.191406 61.714844 C 149.738281 60.933594 152.308594 60.226562 154.898438 59.597656 C 157.488281 58.964844 160.097656 58.414062 162.71875 57.933594 C 165.34375 57.457031 167.976562 57.058594 170.625 56.738281 C 173.269531 56.414062 175.921875 56.171875 178.582031 56.003906 C 181.246094 55.839844 183.90625 55.753906 186.574219 55.742188 C 189.238281 55.734375 191.902344 55.804688 194.566406 55.949219 C 197.226562 56.097656 199.882812 56.324219 202.53125 56.628906 C 205.179688 56.933594 207.816406 57.3125 210.441406 57.773438 C 213.066406 58.230469 215.679688 58.765625 218.273438 59.378906 C 220.867188 59.992188 223.441406 60.679688 225.996094 61.445312 C 228.550781 62.207031 231.078125 63.046875 233.582031 63.960938 C 236.089844 64.871094 238.5625 65.859375 241.011719 66.917969 C 243.457031 67.976562 245.871094 69.105469 248.25 70.304688 C 250.632812 71.503906 252.972656 72.773438 255.28125 74.113281 C 257.585938 75.453125 259.847656 76.855469 262.074219 78.328125 C 264.296875 79.800781 266.472656 81.335938 268.605469 82.933594 C 270.738281 84.535156 272.820312 86.195312 274.855469 87.917969 C 276.890625 89.640625 278.875 91.421875 280.804688 93.261719 C 282.734375 95.097656 284.609375 96.992188 286.425781 98.941406 C 288.246094 100.890625 290.003906 102.894531 291.707031 104.945312 C 293.40625 107 295.046875 109.097656 296.621094 111.25 C 298.199219 113.398438 299.714844 115.589844 301.160156 117.828125 C 302.609375 120.066406 303.992188 122.347656 305.304688 124.667969 C 306.617188 126.984375 307.863281 129.339844 309.039062 131.734375 C 310.214844 134.128906 311.320312 136.550781 312.351562 139.011719 C 313.382812 141.46875 314.34375 143.953125 315.230469 146.46875 C 316.117188 148.980469 316.929688 151.519531 317.664062 154.082031 C 318.402344 156.644531 319.0625 159.226562 319.648438 161.824219 C 320.234375 164.425781 320.742188 167.042969 321.175781 169.671875 C 321.605469 172.304688 321.960938 174.945312 322.234375 177.597656 C 322.511719 180.246094 322.710938 182.90625 322.828125 185.566406 C 322.949219 188.230469 322.988281 190.894531 322.953125 193.5625 C 322.914062 196.226562 322.800781 198.890625 322.605469 201.546875 C 322.414062 204.207031 322.140625 206.859375 321.792969 209.5 C 321.441406 212.144531 321.015625 214.773438 320.511719 217.390625 C 320.003906 220.007812 319.425781 222.609375 318.765625 225.191406 C 318.109375 227.777344 317.375 230.339844 316.570312 232.878906 C 315.761719 235.417969 314.878906 237.933594 313.921875 240.421875 C 312.964844 242.910156 311.9375 245.367188 310.835938 247.796875 C 309.734375 250.222656 308.566406 252.617188 307.324219 254.976562 C 306.082031 257.335938 304.773438 259.65625 303.394531 261.9375 C 302.015625 264.21875 300.570312 266.460938 299.0625 268.65625 C 297.550781 270.855469 295.976562 273.003906 294.34375 275.109375 C 292.707031 277.214844 291.007812 279.269531 289.25 281.273438 C 287.492188 283.277344 285.679688 285.230469 283.808594 287.125 C 281.933594 289.023438 280.007812 290.867188 278.027344 292.648438 C 276.046875 294.433594 274.015625 296.160156 271.933594 297.824219 C 269.851562 299.488281 267.722656 301.089844 265.546875 302.632812 C 263.371094 304.171875 261.152344 305.644531 258.886719 307.054688 C 256.625 308.464844 254.324219 309.804688 251.980469 311.078125 C 249.640625 312.351562 247.261719 313.554688 244.847656 314.691406 C 242.4375 315.824219 239.992188 316.886719 237.515625 317.875 C 235.042969 318.867188 232.539062 319.78125 230.011719 320.625 Z M 230.101562 320.503906 " />
</g>
</g>
</svg>
