<?xml version="1.0" encoding="UTF-8"?>
<svg xmlns="http://www.w3.org/2000/svg" xmlns:xlink="http://www.w3.org/1999/xlink" width="375pt" height="374.999991pt" viewBox="0 0 375 374.999991" version="1.2">
<defs>
<clipPath id="clip1">
  <path d="M 13.421875 13.421875 L 361.421875 13.421875 L 361.421875 361.421875 L 13.421875 361.421875 Z M 13.421875 13.421875 "/>
</clipPath>
</defs>
<g id="surface1">
<g clip-path="url(#clip1)" clip-rule="nonzero">
  <path style=" stroke:none;fill-rule:nonzero;fill:rgb(13, 23, 53);fill-opacity:1;" d="M 361.421875 308.507812 C 361.421875 337.714844 337.75 361.390625 308.542969 361.390625 L 66.316406 361.390625 C 37.109375 361.390625 13.4375 337.714844 13.4375 308.507812 L 13.4375 66.28125 C 13.4375 37.074219 37.109375 13.402344 66.316406 13.402344 L 308.542969 13.402344 C 337.75 13.402344 361.425781 37.074219 361.425781 66.28125 L 361.425781 308.507812 Z M 361.421875 308.507812 " />
</g>
  <path style=" stroke:none;fill-rule:nonzero;fill:rgb(100%, 100%, 100%);fill-opacity:1;" d="M 151.039062 137.554688 C 151.039062 138.40625 150.996094 139.253906 150.914062 140.101562 C 150.828125 140.949219 150.703125 141.789062 150.539062 142.625 C 150.371094 143.460938 150.164062 144.285156 149.917969 145.101562 C 149.671875 145.914062 149.382812 146.714844 149.058594 147.503906 C 148.734375 148.289062 148.371094 149.058594 147.96875 149.808594 C 147.566406 150.558594 147.128906 151.289062 146.65625 151.996094 C 146.183594 152.703125 145.675781 153.386719 145.136719 154.046875 C 144.597656 154.703125 144.027344 155.332031 143.421875 155.9375 C 142.820312 156.539062 142.191406 157.109375 141.535156 157.648438 C 140.875 158.1875 140.191406 158.695312 139.484375 159.167969 C 138.777344 159.640625 138.046875 160.078125 137.296875 160.480469 C 136.546875 160.882812 135.777344 161.246094 134.988281 161.570312 C 134.203125 161.898438 133.402344 162.183594 132.589844 162.429688 C 131.773438 162.675781 130.949219 162.882812 130.113281 163.050781 C 129.277344 163.214844 128.4375 163.339844 127.589844 163.425781 C 126.742188 163.507812 125.894531 163.550781 125.042969 163.550781 C 124.191406 163.550781 123.339844 163.507812 122.492188 163.425781 C 121.644531 163.339844 120.804688 163.214844 119.96875 163.050781 C 119.136719 162.882812 118.308594 162.675781 117.496094 162.429688 C 116.679688 162.183594 115.878906 161.898438 115.09375 161.570312 C 114.308594 161.246094 113.539062 160.882812 112.789062 160.480469 C 112.035156 160.078125 111.308594 159.640625 110.597656 159.167969 C 109.890625 158.695312 109.207031 158.1875 108.550781 157.648438 C 107.890625 157.109375 107.261719 156.539062 106.660156 155.9375 C 106.058594 155.332031 105.488281 154.703125 104.945312 154.046875 C 104.40625 153.386719 103.898438 152.703125 103.425781 151.996094 C 102.953125 151.289062 102.515625 150.558594 102.117188 149.808594 C 101.714844 149.058594 101.351562 148.289062 101.023438 147.503906 C 100.699219 146.714844 100.414062 145.914062 100.164062 145.101562 C 99.917969 144.285156 99.710938 143.460938 99.546875 142.625 C 99.378906 141.789062 99.253906 140.949219 99.171875 140.101562 C 99.085938 139.253906 99.046875 138.40625 99.046875 137.554688 C 99.046875 136.703125 99.085938 135.851562 99.171875 135.007812 C 99.253906 134.160156 99.378906 133.316406 99.546875 132.484375 C 99.710938 131.648438 99.917969 130.824219 100.164062 130.007812 C 100.414062 129.191406 100.699219 128.390625 101.023438 127.605469 C 101.351562 126.820312 101.714844 126.050781 102.117188 125.300781 C 102.515625 124.546875 102.953125 123.820312 103.425781 123.113281 C 103.898438 122.402344 104.40625 121.71875 104.945312 121.0625 C 105.488281 120.402344 106.058594 119.773438 106.660156 119.171875 C 107.261719 118.570312 107.890625 118 108.550781 117.460938 C 109.207031 116.917969 109.890625 116.414062 110.597656 115.9375 C 111.308594 115.464844 112.035156 115.027344 112.789062 114.628906 C 113.539062 114.226562 114.308594 113.863281 115.09375 113.535156 C 115.878906 113.210938 116.679688 112.925781 117.496094 112.675781 C 118.308594 112.429688 119.136719 112.222656 119.96875 112.058594 C 120.804688 111.890625 121.644531 111.765625 122.492188 111.683594 C 123.339844 111.601562 124.191406 111.558594 125.042969 111.558594 C 125.894531 111.558594 126.742188 111.601562 127.589844 111.683594 C 128.4375 111.765625 129.277344 111.890625 130.113281 112.058594 C 130.949219 112.222656 131.773438 112.429688 132.589844 112.675781 C 133.402344 112.925781 134.203125 113.210938 134.988281 113.535156 C 135.777344 113.863281 136.546875 114.226562 137.296875 114.628906 C 138.046875 115.027344 138.777344 115.464844 139.484375 115.9375 C 140.191406 116.414062 140.875 116.917969 141.535156 117.457031 C 142.191406 118 142.820312 118.570312 143.421875 119.171875 C 144.027344 119.773438 144.597656 120.402344 145.136719 121.0625 C 145.675781 121.71875 146.183594 122.402344 146.65625 123.113281 C 147.128906 123.820312 147.566406 124.546875 147.96875 125.300781 C 148.371094 126.050781 148.734375 126.820312 149.058594 127.605469 C 149.382812 128.390625 149.671875 129.191406 149.917969 130.007812 C 150.164062 130.824219 150.371094 131.648438 150.539062 132.484375 C 150.703125 133.316406 150.828125 134.160156 150.914062 135.007812 C 150.996094 135.851562 151.039062 136.703125 151.039062 137.554688 Z M 151.039062 137.554688 " />
  <path style=" stroke:none;fill-rule:nonzero;fill:rgb(100%, 100%, 100%);fill-opacity:1;" d="M 102.632812 182.714844 L 147.292969 182.714844 L 147.292969 326.386719 L 102.632812 326.386719 Z M 102.632812 182.714844 " />
  <path style=" stroke:none;fill-rule:nonzero;fill:rgb(100%, 100%, 100%);fill-opacity:1;" d="M 175.378906 182.714844 L 217.886719 182.714844 L 217.886719 326.386719 L 175.378906 326.386719 Z M 175.378906 182.714844 " />
  <path style=" stroke:none;fill-rule:nonzero;fill:rgb(100%, 100%, 100%);fill-opacity:1;" d="M 177.21875 259.207031 L 219.722656 259.207031 L 219.722656 326.386719 L 177.21875 326.386719 Z M 177.21875 259.207031 " />
  <path style=" stroke:none;fill-rule:nonzero;fill:rgb(100%, 100%, 100%);fill-opacity:1;" d="M 219.722656 259.207031 C 219.722656 259.207031 219.058594 240.574219 223.972656 230.886719 C 223.972656 230.886719 228.886719 218.953125 244.335938 218.882812 C 244.335938 218.882812 262.453125 215.71875 267.648438 233.695312 C 267.648438 233.695312 269.613281 243.664062 269.613281 247.878906 C 269.613281 252.09375 269.757812 326.386719 269.757812 326.386719 L 314.273438 326.386719 L 314.273438 244.089844 C 314.273438 244.089844 317.503906 197.601562 289.601562 184.867188 C 289.601562 184.867188 243.726562 164.269531 218.824219 202.097656 C 218.824219 202.097656 213.394531 205.839844 212.644531 195.355469 C 211.894531 184.867188 205.527344 211.457031 205.339844 212.019531 C 205.152344 212.582031 212.644531 265.011719 212.644531 265.011719 Z M 219.722656 259.207031 " />
</g>
</svg>
