<?xml version="1.0" encoding="UTF-8"?>
<svg xmlns="http://www.w3.org/2000/svg" xmlns:xlink="http://www.w3.org/1999/xlink" width="30pt" height="30.000001pt" viewBox="0 0 30 30.000001" version="1.2">
<defs>
<clipPath id="clip1">
  <path d="M 0.484375 0 L 29.515625 0 L 29.515625 29.03125 L 0.484375 29.03125 Z M 0.484375 0 "/>
</clipPath>
</defs>
<g id="surface1">
<g clip-path="url(#clip1)" clip-rule="nonzero">
  <path style=" stroke:none;fill-rule:nonzero;fill:rgb(102, 65, 219);fill-opacity:1;" d="M 15 0 C 14.046875 0 13.101562 0.09375 12.167969 0.277344 C 11.234375 0.464844 10.324219 0.738281 9.445312 1.105469 C 8.5625 1.46875 7.726562 1.917969 6.933594 2.445312 C 6.144531 2.976562 5.410156 3.578125 4.734375 4.25 C 4.0625 4.925781 3.460938 5.660156 2.929688 6.453125 C 2.402344 7.242188 1.953125 8.082031 1.589844 8.960938 C 1.222656 9.839844 0.949219 10.75 0.761719 11.683594 C 0.578125 12.617188 0.484375 13.5625 0.484375 14.515625 C 0.484375 15.46875 0.578125 16.414062 0.761719 17.347656 C 0.949219 18.28125 1.222656 19.191406 1.589844 20.070312 C 1.953125 20.953125 2.402344 21.789062 2.929688 22.582031 C 3.460938 23.375 4.0625 24.105469 4.734375 24.78125 C 5.410156 25.453125 6.144531 26.054688 6.933594 26.585938 C 7.726562 27.117188 8.5625 27.5625 9.445312 27.925781 C 10.324219 28.292969 11.234375 28.566406 12.167969 28.753906 C 13.101562 28.9375 14.046875 29.03125 15 29.03125 C 15.953125 29.03125 16.898438 28.9375 17.832031 28.753906 C 18.765625 28.566406 19.675781 28.292969 20.554688 27.925781 C 21.4375 27.5625 22.273438 27.117188 23.066406 26.585938 C 23.855469 26.054688 24.589844 25.453125 25.265625 24.78125 C 25.9375 24.105469 26.539062 23.375 27.070312 22.582031 C 27.597656 21.789062 28.046875 20.953125 28.410156 20.070312 C 28.777344 19.191406 29.050781 18.28125 29.238281 17.347656 C 29.421875 16.414062 29.515625 15.46875 29.515625 14.515625 C 29.515625 13.5625 29.421875 12.617188 29.238281 11.683594 C 29.050781 10.75 28.777344 9.839844 28.410156 8.960938 C 28.046875 8.082031 27.597656 7.242188 27.070312 6.453125 C 26.539062 5.660156 25.9375 4.925781 25.265625 4.25 C 24.589844 3.578125 23.855469 2.976562 23.066406 2.445312 C 22.273438 1.917969 21.4375 1.46875 20.554688 1.105469 C 19.675781 0.738281 18.765625 0.464844 17.832031 0.277344 C 16.898438 0.09375 15.953125 0 15 0 Z M 13.964844 19.824219 C 13.964844 20.078125 13.875 20.292969 13.695312 20.46875 C 13.519531 20.648438 13.300781 20.738281 13.050781 20.738281 L 10.726562 20.738281 C 10.476562 20.738281 10.261719 20.648438 10.082031 20.46875 C 9.90625 20.292969 9.816406 20.078125 9.816406 19.824219 L 9.816406 9.207031 C 9.816406 8.957031 9.90625 8.742188 10.082031 8.5625 C 10.261719 8.382812 10.476562 8.296875 10.726562 8.296875 L 13.050781 8.296875 C 13.300781 8.296875 13.519531 8.382812 13.695312 8.5625 C 13.875 8.742188 13.964844 8.957031 13.964844 9.207031 Z M 20.183594 19.824219 C 20.183594 20.078125 20.09375 20.292969 19.917969 20.46875 C 19.738281 20.648438 19.523438 20.738281 19.273438 20.738281 L 16.949219 20.738281 C 16.699219 20.738281 16.480469 20.648438 16.304688 20.46875 C 16.125 20.292969 16.035156 20.078125 16.035156 19.824219 L 16.035156 9.207031 C 16.035156 8.957031 16.125 8.742188 16.304688 8.5625 C 16.480469 8.382812 16.699219 8.296875 16.949219 8.296875 L 19.273438 8.296875 C 19.523438 8.296875 19.738281 8.382812 19.917969 8.5625 C 20.09375 8.742188 20.183594 8.957031 20.183594 9.207031 Z M 20.183594 19.824219 " />
</g>
</g>
</svg>
