<?xml version="1.0" encoding="UTF-8"?>
<svg xmlns="http://www.w3.org/2000/svg" xmlns:xlink="http://www.w3.org/1999/xlink" width="30pt" height="30.000001pt" viewBox="0 0 30 30.000001" version="1.2">
<defs>
<clipPath id="clip1">
  <path d="M 0.484375 0 L 29.515625 0 L 29.515625 29.03125 L 0.484375 29.03125 Z M 0.484375 0 "/>
</clipPath>
</defs>
<g id="surface1">
<g clip-path="url(#clip1)" clip-rule="nonzero">
<path style=" stroke:none;fill-rule:nonzero;fill:rgb(102, 65, 219);fill-opacity:1;" d="M 20.761719 15.898438 L 13.195312 21.042969 C 12.972656 21.195312 12.710938 21.269531 12.453125 21.265625 C 12.25 21.261719 12.050781 21.210938 11.867188 21.113281 C 11.449219 20.882812 11.191406 20.441406 11.199219 19.964844 L 11.402344 9.382812 C 11.410156 8.90625 11.6875 8.472656 12.113281 8.261719 C 12.542969 8.050781 13.054688 8.097656 13.4375 8.378906 L 20.800781 13.8125 C 21.132812 14.058594 21.328125 14.453125 21.320312 14.867188 C 21.3125 15.28125 21.101562 15.664062 20.761719 15.898438 Z M 15 0 C 6.984375 0 0.484375 6.5 0.484375 14.515625 C 0.484375 22.535156 6.984375 29.03125 15 29.03125 C 23.019531 29.03125 29.515625 22.535156 29.515625 14.515625 C 29.515625 6.5 23.019531 0 15 0 "/>
</g>
</g>
</svg>
