<?xml version="1.0" encoding="UTF-8"?>
<svg xmlns="http://www.w3.org/2000/svg" xmlns:xlink="http://www.w3.org/1999/xlink" width="30pt" height="30.000001pt" viewBox="0 0 30 30.000001" version="1.2">
<defs>
<clipPath id="clip1">
  <path d="M 2.40625 0.0078125 L 27.808594 0.0078125 L 27.808594 29.023438 L 2.40625 29.023438 Z M 2.40625 0.0078125 "/>
</clipPath>
</defs>
<g id="surface1">
<g clip-path="url(#clip1)" clip-rule="nonzero">
<path style=" stroke:none;fill-rule:nonzero;fill:rgb(0%,71.759033%,50.19989%);fill-opacity:1;" d="M 5.988281 0.0429688 C 8.132812 0.363281 25.390625 4.195312 26.960938 4.609375 C 28.207031 4.9375 28.039062 6.332031 28.019531 7.007812 C 27.875 11.875 26.457031 25.125 26.371094 26.621094 C 26.300781 27.902344 25.53125 28.597656 24.105469 28.785156 C 18.511719 29.515625 7.851562 28.390625 4.464844 27.941406 C 3.296875 27.789062 2.582031 27.738281 2.464844 25.117188 C 2.203125 19.253906 2.839844 6.546875 3.949219 1.535156 C 4.175781 0.507812 4.617188 -0.160156 5.988281 0.0429688 "/>
</g>
<path style=" stroke:none;fill-rule:nonzero;fill:rgb(4.708862%,8.628845%,20.779419%);fill-opacity:1;" d="M 6.929688 12.066406 C 6.726562 11.871094 6.558594 11.636719 6.433594 11.375 C 6.042969 10.566406 6.125 9.738281 6.234375 9.019531 C 6.546875 6.90625 7.074219 4.816406 7.796875 2.800781 C 8.007812 2.210938 8.664062 1.902344 9.265625 2.109375 C 9.863281 2.316406 10.175781 2.964844 9.964844 3.550781 C 9.292969 5.429688 8.804688 7.378906 8.507812 9.347656 C 8.449219 9.738281 8.398438 10.171875 8.511719 10.40625 C 8.621094 10.632812 9.097656 10.707031 9.578125 10.574219 C 10.1875 10.410156 10.820312 10.761719 10.992188 11.359375 C 11.164062 11.960938 10.804688 12.585938 10.191406 12.75 C 8.921875 13.097656 7.6875 12.820312 6.929688 12.066406 "/>
<path style=" stroke:none;fill-rule:nonzero;fill:rgb(4.708862%,8.628845%,20.779419%);fill-opacity:1;" d="M 4.71875 7.050781 C 4.515625 6.851562 4.386719 6.574219 4.382812 6.269531 C 4.375 5.644531 4.886719 5.132812 5.519531 5.128906 C 5.851562 5.125 6.171875 5.117188 6.484375 5.109375 C 7.851562 5.078125 9.140625 5.046875 10.699219 5.359375 C 11.324219 5.484375 11.722656 6.082031 11.597656 6.695312 C 11.46875 7.304688 10.859375 7.699219 10.238281 7.574219 C 8.933594 7.3125 7.824219 7.335938 6.539062 7.367188 C 6.21875 7.375 5.886719 7.382812 5.546875 7.386719 C 5.222656 7.390625 4.929688 7.261719 4.71875 7.050781 "/>
<path style=" stroke:none;fill-rule:nonzero;fill:rgb(4.708862%,8.628845%,20.779419%);fill-opacity:1;" d="M 14.21875 6.78125 Z M 16.007812 8.164062 C 15.933594 8.085938 15.847656 8.015625 15.753906 7.953125 C 15.429688 7.730469 15 7.675781 14.679688 7.8125 C 14.625 7.839844 14.570312 7.871094 14.519531 7.90625 C 14.28125 8.089844 14.105469 8.402344 14.035156 8.765625 C 13.925781 9.351562 14.046875 10.027344 14.339844 10.441406 C 14.546875 10.734375 14.773438 10.804688 14.921875 10.832031 C 15.253906 10.890625 15.773438 10.613281 16.109375 10.203125 C 16.394531 9.855469 16.519531 9.4375 16.457031 9.027344 C 16.410156 8.703125 16.253906 8.40625 16.007812 8.164062 Z M 12.839844 12.191406 C 12.699219 12.050781 12.570312 11.898438 12.449219 11.726562 C 11.8125 10.820312 11.550781 9.527344 11.777344 8.351562 C 11.949219 7.441406 12.421875 6.648438 13.105469 6.125 C 13.304688 5.972656 13.523438 5.84375 13.757812 5.746094 C 14.816406 5.289062 16.082031 5.425781 17.066406 6.097656 C 17.988281 6.726562 18.578125 7.652344 18.734375 8.703125 C 18.886719 9.742188 18.589844 10.773438 17.902344 11.617188 C 17.234375 12.4375 15.945312 13.304688 14.519531 13.054688 C 13.871094 12.941406 13.300781 12.648438 12.839844 12.191406 "/>
<path style=" stroke:none;fill-rule:nonzero;fill:rgb(4.708862%,8.628845%,20.779419%);fill-opacity:1;" d="M 6.214844 22.988281 C 6.054688 22.832031 5.945312 22.621094 5.917969 22.382812 C 5.695312 20.402344 5.683594 17.660156 5.890625 15.046875 C 5.9375 14.484375 6.4375 14.0625 7.011719 14.109375 C 7.585938 14.152344 8.011719 14.644531 7.96875 15.207031 C 7.824219 17.027344 7.75 19.660156 7.949219 21.792969 C 7.972656 21.867188 7.984375 21.945312 7.988281 22.023438 L 7.992188 22.230469 C 8.015625 22.78125 7.589844 23.25 7.03125 23.289062 C 6.714844 23.3125 6.421875 23.195312 6.214844 22.988281 "/>
<path style=" stroke:none;fill-rule:nonzero;fill:rgb(4.708862%,8.628845%,20.779419%);fill-opacity:1;" d="M 5.277344 23.261719 C 5.066406 23.054688 4.949219 22.757812 4.980469 22.445312 C 5.03125 21.882812 5.539062 21.46875 6.113281 21.523438 C 7.292969 21.632812 8.292969 21.367188 9.011719 20.761719 C 9.605469 20.257812 9.988281 19.527344 10.027344 18.808594 C 10.078125 17.953125 9.71875 16.824219 8.808594 16.367188 C 7.917969 15.921875 7.082031 15.898438 6.015625 16.289062 C 5.476562 16.484375 4.875 16.21875 4.675781 15.6875 C 4.472656 15.160156 4.75 14.570312 5.285156 14.371094 C 6.914062 13.777344 8.335938 13.832031 9.757812 14.546875 C 11.269531 15.308594 12.214844 17.066406 12.105469 18.921875 C 12.035156 20.207031 11.398438 21.441406 10.371094 22.3125 C 9.5625 22.996094 8.132812 23.765625 5.917969 23.558594 C 5.664062 23.535156 5.441406 23.425781 5.277344 23.261719 "/>
<path style=" stroke:none;fill-rule:nonzero;fill:rgb(4.708862%,8.628845%,20.779419%);fill-opacity:1;" d="M 15.253906 20.148438 C 15.277344 21.183594 15.851562 21.785156 16.375 21.90625 C 16.910156 22.03125 17.25 21.625 17.445312 21.265625 C 17.996094 20.242188 17.71875 18.519531 16.886719 17.789062 C 16.546875 17.492188 16.398438 17.5625 16.324219 17.59375 C 15.800781 17.832031 15.226562 18.972656 15.253906 20.148438 Z M 14.335938 23.03125 C 13.636719 22.335938 13.195312 21.324219 13.167969 20.195312 L 13.167969 20.191406 C 13.132812 18.542969 13.921875 16.421875 15.453125 15.730469 C 16.382812 15.308594 17.414062 15.503906 18.277344 16.257812 C 19.832031 17.621094 20.296875 20.351562 19.292969 22.222656 C 18.566406 23.574219 17.265625 24.21875 15.898438 23.902344 C 15.300781 23.765625 14.769531 23.460938 14.335938 23.03125 "/>
<path style=" stroke:none;fill-rule:nonzero;fill:rgb(4.708862%,8.628845%,20.779419%);fill-opacity:1;" d="M 21.898438 11.253906 C 21.332031 11.011719 21.546875 7.566406 22.152344 7.609375 C 22.757812 7.648438 24.652344 7.855469 25.175781 7.894531 C 25.703125 7.9375 25.363281 12.136719 24.757812 11.9375 C 24.15625 11.738281 22.460938 11.492188 21.898438 11.253906 "/>
<path style=" stroke:none;fill-rule:nonzero;fill:rgb(4.708862%,8.628845%,20.779419%);fill-opacity:1;" d="M 21.671875 17.242188 C 21.109375 17.003906 21.320312 13.554688 21.925781 13.597656 C 22.53125 13.640625 24.429688 13.84375 24.953125 13.886719 C 25.476562 13.925781 25.140625 18.125 24.535156 17.925781 C 23.929688 17.726562 22.234375 17.484375 21.671875 17.242188 "/>
<path style=" stroke:none;fill-rule:nonzero;fill:rgb(4.708862%,8.628845%,20.779419%);fill-opacity:1;" d="M 21.34375 23.332031 C 20.78125 23.09375 20.996094 19.644531 21.601562 19.6875 C 22.207031 19.726562 24.101562 19.933594 24.625 19.972656 C 25.148438 20.015625 24.8125 24.214844 24.207031 24.015625 C 23.601562 23.816406 21.910156 23.570312 21.34375 23.332031 "/>
</g>
</svg>
